<svg viewBox="0 0 182 78" fill="none" xmlns="http://www.w3.org/2000/svg">
  <title>full page asteroid</title>
  <g filter="url(#filter0_i_291_541)">
    <path d="M49 1C24 3-1 30 1 44c3 16 18 31 38 33 33 4 37-5 85-6 48-2 57-3 57-18-4-13-20-20-57-32-10-2-40-24-75-20Z" fill="#DADDE7"/>
  </g>
  <g filter="url(#filter1_i_291_541)">
    <path d="M136 55a6 6 0 1 0 0-12 6 6 0 0 0 0 12Z" fill="#FBFBFB"/>
  </g>
  <defs>
    <filter id="filter0_i_291_541" x="1" y=".3" width="180.1" height="77.7" filterUnits="userSpaceOnUse" color-interpolation-filters="sRGB">
      <feFlood flood-opacity="0" result="BackgroundImageFix"/>
      <feBlend in="SourceGraphic" in2="BackgroundImageFix" result="shape"/>
      <feColorMatrix in="SourceAlpha" values="0 0 0 0 0 0 0 0 0 0 0 0 0 0 0 0 0 0 127 0" result="hardAlpha"/>
      <feOffset dx="16" dy="-5"/>
      <feComposite in2="hardAlpha" operator="arithmetic" k2="-1" k3="1"/>
      <feColorMatrix values="0 0 0 0 0 0 0 0 0 0 0 0 0 0 0 0 0 0 0.15 0"/>
      <feBlend in2="shape" result="effect1_innerShadow_291_541"/>
    </filter>
    <filter id="filter1_i_291_541" x="130.2" y="43.2" width="12" height="12" filterUnits="userSpaceOnUse" color-interpolation-filters="sRGB">
      <feFlood flood-opacity="0" result="BackgroundImageFix"/>
      <feBlend in="SourceGraphic" in2="BackgroundImageFix" result="shape"/>
      <feColorMatrix in="SourceAlpha" values="0 0 0 0 0 0 0 0 0 0 0 0 0 0 0 0 0 0 127 0" result="hardAlpha"/>
      <feOffset dx="-1.8" dy="1.8"/>
      <feComposite in2="hardAlpha" operator="arithmetic" k2="-1" k3="1"/>
      <feColorMatrix values="0 0 0 0 0 0 0 0 0 0 0 0 0 0 0 0 0 0 0.25 0"/>
      <feBlend in2="shape" result="effect1_innerShadow_291_541"/>
    </filter>
  </defs>
</svg>