<svg viewBox="0 0 580 270" fill="#fafafa" fill-opacity=".9" xmlns="http://www.w3.org/2000/svg"><title>Full page cloud</title><path d="M283 3c12 0 24 4 35 10a57 57 0 0 1 90 26c14 8 24 20 30 35l17 7c10-8 22-13 36-13 25 0 46 17 55 39 20 12 33 33 33 58 0 31-20 56-47 64a64 64 0 0 1-58 40c-14 0-27-4-38-12a62 62 0 0 1-46 4 62 62 0 0 1-58-6 62 62 0 0 1-77 2 62 62 0 0 1-47 4 62 62 0 0 1-60-8 62 62 0 0 1-69-8c-4-1-9-4-12-8l-8 1c-33 0-59-27-59-61 0-26 16-48 38-57 0-17 13-31 30-31l11 2a71 71 0 0 1 84-15c7-9 16-16 26-20v-1c0-17 14-30 30-30 4 0 8 0 11 2 13-15 32-24 53-24Z" /></svg>