<svg viewBox="0 0 183 83" fill="none" xmlns="http://www.w3.org/2000/svg">
  <g filter="url(#filter0_i_291_541)">
    <path d="M134 79c25-3 49-31 47-45-4-16-19-31-39-32-33-3-37 6-85 9C9 13 0 15 1 29c4 13 20 20 57 32 11 1 41 22 76 18Z" fill="#DADDE7"/>
  </g>
  <g filter="url(#filter1_i_291_541)" fill="#FBFBFB">
    <path d="M160 34a7 7 0 1 0 0 14 7 7 0 0 0 0-14Zm-40-14a20 20 0 1 0 2 40 20 20 0 0 0-2-40Z"/>
  </g>
  <defs>
    <filter id="filter0_i_291_541" x=".6" y="1.3" width="180.3" height="77.8" filterUnits="userSpaceOnUse" color-interpolation-filters="sRGB">
      <feFlood flood-opacity="0" result="BackgroundImageFix"/>
      <feBlend in="SourceGraphic" in2="BackgroundImageFix" result="shape"/>
      <feColorMatrix in="SourceAlpha" values="0 0 0 0 0 0 0 0 0 0 0 0 0 0 0 0 0 0 127 0" result="hardAlpha"/>
      <feOffset dx="16" dy="-5"/>
      <feComposite in2="hardAlpha" operator="arithmetic" k2="-1" k3="1"/>
      <feColorMatrix values="0 0 0 0 0 0 0 0 0 0 0 0 0 0 0 0 0 0 0.15 0"/>
      <feBlend in2="shape" result="effect1_innerShadow_291_541"/>
    </filter>
    <filter id="filter1_i_291_541" x="100.5" y="19.5" width="66.7" height="40.9" filterUnits="userSpaceOnUse" color-interpolation-filters="sRGB">
      <feFlood flood-opacity="0" result="BackgroundImageFix"/>
      <feBlend in="SourceGraphic" in2="BackgroundImageFix" result="shape"/>
      <feColorMatrix in="SourceAlpha" values="0 0 0 0 0 0 0 0 0 0 0 0 0 0 0 0 0 0 127 0" result="hardAlpha"/>
      <feOffset dx="-5.6" dy="5.6"/>
      <feComposite in2="hardAlpha" operator="arithmetic" k2="-1" k3="1"/>
      <feColorMatrix values="0 0 0 0 0 0 0 0 0 0 0 0 0 0 0 0 0 0 0.25 0"/>
      <feBlend in2="shape" result="effect1_innerShadow_291_541"/>
    </filter>
  </defs>
</svg>