<svg viewBox="0 0 486 427" fill="none" xmlns="http://www.w3.org/2000/svg"><path d="m253 15 223 386a12 12 0 0 1-10 18H20a12 12 0 0 1-10-18L233 15a12 12 0 0 1 20 0Z" fill="#FBBF24" stroke="#181A26" stroke-width="16"/><path d="M206 216c11 2 15 9 16 19 0 6 13 18 20 18h28c7 1 8 13 0 14-12 2-24 1-37 1-6 0-10-10-16-12-3 7-5 14-6 22h30c14 0 21 6 21 20v68c0 19-26 19-26 0v-44c0-7-2-10-9-10-16 1-35 4-51-1-10-3-13-10-10-20 6-19 11-39 18-58 3-12 10-17 22-17Zm98 174c0 12-13 11-13 0v-85c0-5-1-9-7-9-5 0-5-18 2-18h38c2-9-7-15-7-24v-67c0-2-2-6 2-7s7 2 8 5c2 3 2 7 2 10v54c0 7-8 8 0 22 2 3 2 7 2 7s31 0 31 7 2 11-6 11-6 5-6 9v82c0 16-14 15-14 0v-89h-30l-2 92Z" fill="#181A26"/><path d="m218 396-12-41c-1-6-5-9-11-9-21-2-21-2-30 17l-14 30c-5 11-18 5-13-6l19-40c2-3 4-6-1-9-15-10-21-26-24-42l-8-46c-1-7 2-12 8-13 6-2 11 0 13 8l9 46c1 7 3 16 8 22 5 7 12 9 19 9l35 1c6 0 11 2 13 8 1 6-1 12-7 14-4 2-4 4-3 7l10 36c2 8-5 16-11 8Zm8-231a24 24 0 1 1-12 46 25 25 0 0 1-16-27c2-14 15-19 28-19Z" fill="#181A26"/></svg>