<svg width="295" height="350" fill="none" xmlns="http://www.w3.org/2000/svg"><title>IoT Project Cover</title><g clip-path="url(#a)"><path d="M147 176H0v173h147V176Z" fill="#FBFBE1"/><path d="m36 253-14 11 10-32 26-19h32l-14 11H61l-20 15-5 14Z" fill="#E10A1C"/><path d="m46 291-9 6-1-1-4-2-10-30 14-11-3 10 8 24 5 4Zm72-53-9 6-2-5-20-15H76l14-11 26 19 2 6Z" fill="#13182C"/><path d="m68 302-12 9 12-9Zm-15 7h-1v-1l9-6h1l-9 7Zm6-9-9 7-1-1 9-7 1 1Zm-4-2-9 6h-1l10-7v1Zm-12 4-1-1 9-7 1 1-9 7Zm-3-2-1-1 9-7 1 1-9 7Zm-3-24-9 6 1 4 9-6-1-4Zm8 14-9 6-2-1 9-7 2 2Zm-13 4 9-7-1-1-9 6 1 2Zm8-10-9 6-1-2 9-6 1 2Zm74-15h-1l12-9-11 9Zm1-6v-1l8-6h1v1l-9 6Zm8-10-9 6v-1l9-6v1Zm-1-4-9 7h-1v-1l9-7 1 1Zm-11 2v1l9-7v-1l-9 7Zm8-10-9 7v-1l9-7v1Zm-22-9 9-7 4 3-9 6-4-2Zm21 4-9 7-1-2 9-7 1 2Zm-2-4-9 7-2-1 9-7 2 1Zm-3-2-9 7-2-2 9-6 2 1Z" fill="#106E80"/><path d="M60 313h30l26-19 10-30-15 11-4 12-20 15H74l-14 11Z" fill="#F1D333"/><path d="M147 176h147v173H147V176Z" fill="#F8F2F4"/><path d="M147 295v22c15 4 34-4 37-22h-37Zm59-21v8c-6 2-18 4-25-8h25Zm26 0v8c-6 2-18 4-24-8h24Zm63-33v7c-6 2-17 4-26-7h26Z" fill="#2F2B2A"/><path d="M264 241v11c-6 1-20 6-26-11h26Z" fill="#04CEE2"/><path d="M147 320h148v30l-148-1v-29Zm30-29h81v12h-81v-12Zm81-33h37v12h-37v-12Zm-53 2v-36h20v36h-20Zm37-71h53v35h-53v-35Z" fill="#FEFE6C"/><path d="M228 303c8 6 21 7 30 4v-4h-30Z" fill="#2F2B2A"/><path d="M295 270h-26v3h-4v5h-3v4h-4v38h37v-50Zm0-46h-60v3h-3v6h-4v6h-6v35h36v-33h37v-17Zm-90-1h-28v51h35c0-2-2-4-3-5l-2-2 1-2 1-2 1-3h-5v-37Z" fill="#04CEE2"/><path d="M201 221v3h41v-16l-8-4-6-3c-2-2-3-4-5-3-3-4-4-4-6-4l-6 1c-2 0-3 1-5 3l-1 2-2 2-3 5v8c-1 2-1 5 1 6Zm-54 75h30v-58l-4-2-2-1-1-1c-6 0-3-3-6-4-5-1-2-2-5-1l-3-4-3-1-5 1h-1v71Z" fill="#04CEE2"/><path d="M221 87h76v20l-76-20Z" fill="#881F7E"/><path d="m221 87 74 19v24l-74-43Z" fill="#5B2579"/><path d="m221 87 74 42v32l-74-74Z" fill="#3D297E"/><path d="M221 87v88h23l-23-88Z" fill="#2784C7"/><path d="m221 87 23 88h27l-50-88Z" fill="#1D61AC"/><path d="m221 87 50 88h38l-88-88Z" fill="#193E8E"/><path d="M221 87h-74v19l74-19Z" fill="#B0CC22" stroke="#B0CC22"/><path d="M221 87v88h-24l24-88Z" fill="#169DD7"/><path d="m221 87-23 88h-28l51-88Z" fill="#20A19D"/><path d="m221 87-51 88h-38l89-88Z" fill="#209B6C"/><path d="m221 87-74 19v23l74-42Z" fill="#60B236" stroke="#60B236"/><path d="m221 87-74 42v31l74-73Z" fill="#1A9D3F" stroke="#1A9D3F"/><path d="m169 122 34-35 18 17-35 35-17-17Z" fill="#FEFFFE" stroke="#FEFFFE"/><path d="M221 87V1h23l-23 86Z" fill="#DD0836"/><path d="M221 87h74V67l-74 20Z" fill="#BE107F"/><path d="m221 87 74-20V45l-74 42Z" fill="#D80681"/><path d="m221 87 74-42V12l-74 75Z" fill="#E5177B"/><path d="m221 87 23-86h26l-49 86Z" fill="#DF0657"/><path d="m221 87 49-86h36l-85 86Z" fill="#DF196E"/><path d="M221 87h-74V67l74 20Z" fill="#EFE61F" stroke="#EFE61F"/><path d="M221 87V1h-23l23 86Z" fill="#E7302A"/><path d="M221 87 198 1h-26l49 86Z" fill="#E6471D"/><path d="M221 87 172 1h-37l86 86Z" fill="#F07A16"/><path d="m221 87-74-19V45l74 42Z" fill="#FBD614" stroke="#FBD614"/><path d="m221 87-74-42V13l74 74Z" fill="#F7A416" stroke="#F7A416"/><path d="M0 1h147v174H0V1Z" fill="#000"/><path d="m75 48 26 46H48l27-46Z" fill="#94ACAC" fill-opacity=".8"/><path d="M73 54h3l21 36c1 1 0 2-1 2H53l-1-2 21-36Z" fill="#000"/><path d="M0 85v1l62-16 1-1L0 85Z" fill="#fff"/><path d="M147 87v2L90 74l-1-1 58 14Z" fill="#73648D"/><path d="M147 84v3L89 73l-1-2 59 13Z" fill="#28A6BC"/><path d="M147 82v2L88 71l-1-2 60 13Z" fill="#27AE50"/><path d="M147 79v3L87 69l-1-1 61 11Z" fill="#FCF302"/><path d="M147 76v3L86 68l-1-2 62 10Z" fill="#F37022"/><path d="M147 74v2L85 66l-1-2 63 10Z" fill="#EB212F"/><path d="m75 66-12 3-1 1 13 1v-5Z" fill="url(#b)"/></g><defs><linearGradient id="b" x1="63" y1="67.8" x2="72.5" y2="70.6" gradientUnits="userSpaceOnUse"><stop offset=".2" stop-color="#fff"/><stop offset="1" stop-color="#fff" stop-opacity="0"/></linearGradient><clipPath id="a"><path fill="#fff" d="M0 0h295v350H0z"/></clipPath></defs></svg>