<svg width="295" height="350" fill="none" xmlns="http://www.w3.org/2000/svg"><title>NHS Logo</title><path fill="#005EB8" d="M0 0h295v350H0z"/><path d="M47 138h201.6v75.6H47V138Z" fill="#fff"/><path d="M252 217v-84H42v84h210Zm-125.5-76-14.8 67.8H89L74.7 162h-.3L65 208.8H47.7L62.5 141h22.9l14 47h.1l9.5-47h17.5Zm65.1 0-14.3 67.6H159l6.2-29h-21.8l-6 29.2H119l14.3-67.6h18.2l-5.2 25.8h21.6l5.4-25.8 18.4-.2Zm52.5 2-4.3 13.3a35.2 35.2 0 0 0-15.1-3.1c-7.3 0-13.2 1-13.2 6.6 0 9.4 26.7 6 26.7 26.5 0 18.7-17.7 23.6-33.4 23.6a75.2 75.2 0 0 1-21.3-3.6l4.3-13.7c3.7 2.3 10.8 4 16.9 4 5.7 0 14.6-1.2 14.6-8.1 0-11-26.6-6.8-26.6-25.9 0-17.3 15.5-22.7 30.5-22.7 8.5 0 16.4.8 21 3" fill="#005EB8"/></svg>