<svg width="680" height="803" fill="none" xmlns="http://www.w3.org/2000/svg"><title>georgegrainger.com project cover</title><g clip-path="url(#a)"><path fill="#B5D7FE" d="M0 0h680v803H0z"/><path d="m-183 374 64 22 88-124 124 73 20-28 51 33 118-88 121 112 103-77 175 95 88-47 71 190-37 109-1016 2V483l30-109Z" fill="url(#b)"/><g filter="url(#c)"><path d="M108 155a26 26 0 0 0-26-31c-11 0-20 6-25 16-3-3-7-5-12-5a19 19 0 0 0-19 21 15 15 0 0 0 7 28h71c9 0 15-6 15-15 0-7-5-13-11-14Z" fill="#fff"/></g><g filter="url(#d)"><path d="M424 262v-2c0-7-6-13-13-13-5 0-9 4-11 8l-6-2a9 9 0 0 0-9 10 7 7 0 0 0 3 14h34c4 0 7-4 7-8 0-3-2-6-5-7Z" fill="#fff"/></g><path d="M147 256v-1c0-9-9-17-19-17s-18 7-19 15l-9-2c-9 0-17 8-17 17 0 8 6 15 14 17l5 1h39c8 0 15-7 15-16 0-6-4-12-9-14Zm478-108v-1c0-9-8-17-19-17-10 0-18 7-19 15l-9-2c-9 0-17 8-17 17 0 8 6 15 14 17l5 1h40c8 0 14-7 14-16 0-6-4-12-9-14Z" fill="#fff"/><path d="m497 331-43-61-166 300a1 1 0 0 0 0 1 1 1 0 0 0 1 0h379L497 331Z" fill="#B66586"/><path d="M462 337c8-2 17 14 24 12 6-2 2-9 5-14 0-2 6-5 6-5l-43-60-46 83s21-17 28-13c8 3 17-2 26-3Z" fill="#fff"/><path opacity=".3" d="m454 270 4 45 17 32-12 25 29 34 1 56 42 24-9 53 39 33 103-1-214-301Z" fill="#000"/><path d="M546 569 352 296 201 569a1 1 0 0 0 1 1h344a1 1 0 0 0 1 0 1 1 0 0 0-1-1Z" fill="#B66586"/><path d="M358 354c7-2 10 8 20 9 7 0 5-4 7-8 1-2 6-4 6-4l-39-55-42 75s19-15 25-12c7 4 15-4 23-5Z" fill="#fff"/><path opacity=".3" d="m352 296 3 40 6 20-1 32 26 31-14 51 27 15 14 58 42 27h92L352 296Z" fill="#000"/><path d="M363 571 161 311 11 572l352-1Z" fill="#B66586"/><path d="M171 379c7-2 17 10 25 9 5-1 14-15 14-15l-49-62-42 73s18-13 26-9c9 4 16 7 26 4Z" fill="#fff"/><path opacity=".3" d="m178 390-27 63 23 53 60 24-17 21 52 20h94L161 311l17 79Z" fill="#060809"/><path d="M492 596 246 325 3 596h489Z" fill="#6E517A"/><path d="M184 394s25 17 37 12l21-10c5-2 16 5 21 5s16-7 20-10 22-1 21-2l-58-64-62 69Z" fill="#fff"/><path opacity=".3" d="M492 596 246 325l-4 62 28 42-18 61 13 38-24 45 94 23h157Z" fill="#060809"/><path d="m211 596-83-100-43-52-91 112v40h217Z" fill="#6E517A"/><path opacity=".3" d="M211 596 85 444l-2 35 14 24-9 34 7 21-12 25 48 13h80Z" fill="#060809"/><path d="M550 596 429 449l-6 2-9 14-18-13-15 8-11-9-18 1-116 144h314Z" fill="#6E517A"/><path d="M382 460c4-1 12-7 16-6 5 1 10 10 14 11 6 1 18-14 18-14l-38-45-41 47s12-1 16 1 11 8 15 6Z" fill="#fff"/><path opacity=".3" d="m392 406 2 49 13 16-14 32 26 27-4 44 41 22h94L392 406Z" fill="#060809"/><path d="m651 597-90-166-55-33-49 54-122 145h316Z" fill="#6E517A"/><path d="M508 457c8 0 21-13 28-17 7-3 26-8 25-9l-55-33-42 46s11-3 16-2c9 1 21 14 28 15Z" fill="#fff"/><path opacity=".3" d="m506 398 15 30 17 29-22 52 50 50 10 38h75l-90-166-55-33Z" fill="#060809"/><path d="M-200 477c26-2 77-4 127 5 51 9 102 30 152 44a533 533 0 0 0 305-9c50-13 101-31 152-26 51 6 101 34 152 47 51 14 102 13 127 12l26-1v175H-225l-151-173c41-54 112-72 176-74Z" fill="#15661C"/><path d="M-653 561h2182v97H-653v-97Z" fill="#1A751F"/><path d="M-653 561h2182v97H-653v-97Z" fill="#1A751F"/><path d="M-225 507a515 515 0 0 0 153 60c50 10 101 4 151-6 51-11 102-25 153-25 50 0 101 15 152 24 50 9 101 13 152 5s101-27 152-38c51-10 102-10 127-10l26-1c255-1 652 49 652 49L841 724H-225l-421-159c124 8 319-93 421-58Z" fill="#1A751F"/><path d="M-653 578h2182v97H-653v-97Z" fill="#1F8321"/><path d="M-653 578h2182v97H-653v-97Z" fill="#1F8321"/><path d="m-225 571 25-3c26-4 77-11 127-6 51 4 102 20 152 23 51 3 102-7 153-14 50-7 101-13 152-12 50 0 101 6 152 4 51-1 101-9 152-9a794 794 0 0 1 153 17c262 42 680 12 680 12L841 724H-225l-425-144s260 12 425-9Z" fill="#1F8321"/><path d="M-653 619h2182v97H-653v-97Z" fill="#2E912C"/><path d="M-653 619h2182v97H-653v-97Z" fill="#2E912C"/><path d="m-225 589 25 10c26 10 77 30 127 32 51 2 102-14 152-23 51-10 102-13 153-5 50 8 101 27 152 30 50 2 101-11 152-17a2365 2365 0 0 1 279 2l26 1h688L841 724H-225l-425-104s268-87 425-31Z" fill="#2E912C"/><path d="M-653 663h2182v97H-653v-97Z" fill="#429E3E"/><path d="m-225 654 25 1 127 9c51 4 102 9 152 3 51-5 102-21 153-22 50-1 101 13 152 21 50 7 101 8 152 2 51-7 101-20 152-24s102 1 127 4l26 2c263 26 677 25 677 25l-677 49H-225l-424-60s259-20 424-10Z" fill="#429E3E"/><path d="M-653 723h2182v152H-653V723Z" fill="#54AA50"/><path d="m-225 695 25 1c26 1 77 3 127 0 51-4 102-13 152-13 51 0 102 10 153 13 50 3 101-1 152 0 50 0 101 4 152 2s101-12 152-18c51-5 102-8 127-9l26-1c267-12 685 54 685 54H-654s276-35 429-29Z" fill="#54AA50"/><path d="M222 247a15 15 0 1 0 0-29 15 15 0 0 0 0 29Z" fill="url(#e)"/><path d="M269 589h47l-23-36-24 36Z" fill="#3A7638"/><path d="M271 580h43l-21-33-22 33Z" fill="#4B9948"/><path d="M275 570h35l-17-24-18 24Z" fill="#3A7638"/><path d="M296 589h-7v11h7v-11Z" fill="#603F16"/><path opacity=".2" d="M292 546v43h24l-6-9h4l-7-10h2l-17-24Z" fill="#000"/><path d="M507 491h10l-5-11-5 11Z" fill="#3A7638"/><path d="M508 488h9l-5-10-4 10Z" fill="#4B9948"/><path d="M509 485h7l-4-7-3 7Z" fill="#3A7638"/><path d="M513 491h-1v4h1v-4Z" fill="#603F16"/><path opacity=".2" d="M512 478v13h5l-1-3h1l-2-3h1l-4-7Z" fill="#000"/><path d="M377 580a10 10 0 0 1-9 0 282 282 0 0 1-1 0 10 10 0 0 1-8 0c-13-8 4-40 8-47l1-1v1c5 7 22 39 9 47Z" fill="#FBC73A"/><path d="M367 591h2l-1-27-1 27Z" fill="#8A5919"/><path d="M377 580a10 10 0 0 1-9 0v-17 2-33 1c5 7 22 39 9 47Z" fill="#F4992B"/><path d="M600 576h19l-9-21-10 21Z" fill="#3A7638"/><path d="M601 571h17l-8-19-9 19Z" fill="#4B9948"/><path d="M603 565h13l-6-14-7 14Z" fill="#3A7638"/><path d="M611 576h-3v7h3v-7Z" fill="#603F16"/><path opacity=".2" d="M610 551v25h9l-2-5h1l-3-6h1l-6-14Z" fill="#000"/><path d="M589 581h19l-9-21-10 21Z" fill="#3A7638"/><path d="M590 576h17l-8-19-9 19Z" fill="#4B9948"/><path d="M592 570h13l-6-14-7 14Z" fill="#3A7638"/><path d="M600 581h-3v7h3v-7Z" fill="#603F16"/><path opacity=".2" d="M599 556v25h9l-2-5h1l-3-6h1l-6-14Z" fill="#000"/><path d="M463 584h24l-12-27-12 27Z" fill="#3A7638"/><path d="M464 577h22l-11-24-11 24Z" fill="#4B9948"/><path d="M466 570h18l-9-18-9 18Z" fill="#3A7638"/><path d="M477 584h-4v8h4v-8Z" fill="#603F16"/><path opacity=".2" d="M475 552v32h12l-3-7h2l-4-7h2l-9-18Z" fill="#000"/><path d="M653 583h38l-19-29-19 29Z" fill="#3A7638"/><path d="M655 575h34l-17-26-17 26Z" fill="#4B9948"/><path d="M658 567h28l-14-19-14 19Z" fill="#3A7638"/><path d="M675 583h-5v9h5v-9Z" fill="#603F16"/><path opacity=".2" d="M672 548v35h19l-5-7h3l-5-9h2l-14-19Z" fill="#000"/><path d="M540 495h12l-6-14-6 14Z" fill="#3A7638"/><path d="M541 491h10l-5-12-5 12Z" fill="#4B9948"/><path d="M542 487h8l-4-8-4 8Z" fill="#3A7638"/><path d="M547 495h-2v4h2v-4Z" fill="#603F16"/><path opacity=".2" d="M546 479v16h6l-2-4h1l-1-4-4-8Z" fill="#000"/><path d="M694 595a6 6 0 0 1-5 0 177 177 0 0 1-1 0 6 6 0 0 1-5 0c-9-5 2-25 5-29v-1h1c2 5 13 25 5 30Z" fill="#FBC73A"/><path d="M688 602h1l-1-17v17Z" fill="#8A5919"/><path d="M639 574a7 7 0 0 1-6 0 199 199 0 0 1-1 0 7 7 0 0 1-6 0c-9-6 3-28 6-33l1-1v1c3 5 16 28 6 33Z" fill="#FBC73A"/><path d="M632 582h1v-19l-1 19Z" fill="#8A5919"/><path d="M639 574a7 7 0 0 1-6 0v-12 1-23 1c3 5 16 28 6 33Z" fill="#F4992B"/><path d="M552 633h55l-27-62-28 62Z" fill="#3A7638"/><path d="M555 617h49l-24-55-25 55Z" fill="#4B9948"/><path d="M560 600h40l-20-40-20 40Z" fill="#3A7638"/><path d="M583 633h-7v18h7v-18Z" fill="#603F16"/><path opacity=".2" d="M580 560v73h27l-7-16h4l-8-17h3l-19-40Z" fill="#000"/><path d="M245 536h12l-6-13-6 13Z" fill="#3A7638"/><path d="M246 533h10l-5-12-5 12Z" fill="#4B9948"/><path d="M247 529h8l-4-9-4 9Z" fill="#3A7638"/><path d="M252 536h-2v4h2v-4Z" fill="#603F16"/><path opacity=".2" d="M251 520v16h6l-2-3h1l-1-4-4-9Z" fill="#000"/><path d="M251 538h12l-6-13-6 13Z" fill="#3A7638"/><path d="M252 535h10l-5-12-5 12Z" fill="#4B9948"/><path d="M253 531h8l-4-9-4 9Z" fill="#3A7638"/><path d="M258 538h-2v4h2v-4Z" fill="#603F16"/><path opacity=".2" d="M257 522v16h6l-2-3h1l-1-4-4-9Z" fill="#000"/><path d="M346 623a15 15 0 0 1-12 0 427 427 0 0 1-2 0 15 15 0 0 1-13 0c-20-12 7-59 13-71l1-1v1c7 12 34 60 13 71Z" fill="#FBC73A"/><path d="M331 639h3l-1-39-2 40v-1Z" fill="#8A5919"/><path d="M346 623a15 15 0 0 1-12 0l-1-26v4-50l1 1c6 12 33 60 12 71Z" fill="#F4992B"/><path d="M583 511a4 4 0 0 1-3 0 4 4 0 0 1-3 0c-5-3 1-15 3-18 2 3 8 15 3 18Z" fill="#FBC73A"/><path d="M580 515v-10 10Z" fill="#8A5919"/><path d="M583 511a4 4 0 0 1-3 0v-7 1-12c2 3 8 15 3 18Z" fill="#F4992B"/><path d="M510 509a4 4 0 0 1-3 0 4 4 0 0 1-3 0c-5-3 1-15 3-18 2 3 8 15 3 18Z" fill="#FBC73A"/><path d="M507 513v-10 10Z" fill="#8A5919"/><path d="M510 509a4 4 0 0 1-3 0v-7 1-12c2 3 8 15 3 18Z" fill="#F4992B"/><path d="M441 579a7 7 0 0 1-6 0 194 194 0 0 1-1 0 7 7 0 0 1-6 0c-9-5 3-27 6-32l1-1v1c3 5 15 27 6 32Z" fill="#FBC73A"/><path d="M434 587h1v-19l-1 19Z" fill="#8A5919"/><path d="M441 579a7 7 0 0 1-6 0v-12 2-23 1c3 5 15 27 6 32Z" fill="#F4992B"/><path d="M549 498h9l-4-10-5 10Z" fill="#3A7638"/><path d="M549 496h9l-4-10-5 10Z" fill="#4B9948"/><path d="M550 493h7l-3-7-4 7Z" fill="#3A7638"/><path d="M554 498h-1v4h1v-4Z" fill="#603F16"/><path opacity=".2" d="M554 486v12h4l-1-2h1l-1-3-3-7Z" fill="#000"/><path d="M556 502h9l-4-11-5 11Z" fill="#3A7638"/><path d="M556 499h9l-4-9-5 9Z" fill="#4B9948"/><path d="M557 496h7l-3-7-4 7Z" fill="#3A7638"/><path d="M561 502h-1v3h1v-3Z" fill="#603F16"/><path opacity=".2" d="M561 489v13h4l-1-3h1l-1-3-3-7Z" fill="#000"/><path d="M493 493h10l-5-11-5 11Z" fill="#3A7638"/><path d="M494 490h8l-4-10-4 10Z" fill="#4B9948"/><path d="M494 487h8l-4-7-4 7Z" fill="#3A7638"/><path d="M499 493h-2v3h2v-3Z" fill="#603F16"/><path opacity=".2" d="M498 480v13h5l-1-3-1-3h1l-4-7Z" fill="#000"/><path d="M520 492h10l-5-11-5 11Z" fill="#3A7638"/><path d="M521 489h9l-5-10-4 10Z" fill="#4B9948"/><path d="M522 486h7l-4-7-3 7Z" fill="#3A7638"/><path d="M526 492h-1v3h1v-3Z" fill="#603F16"/><path opacity=".2" d="M525 479v13h5l-1-3h1l-2-3h1l-4-7Z" fill="#000"/><path d="M440 509h13l-6-15-7 15Z" fill="#3A7638"/><path d="M441 505h11l-5-13-6 13Z" fill="#4B9948"/><path d="M442 501h9l-4-10-5 10Z" fill="#3A7638"/><path d="M447 508h-1v5h1v-5Z" fill="#603F16"/><path opacity=".2" d="M447 491v18h6l-2-4h1l-1-4-4-10Z" fill="#000"/><path d="M428 510h16l-8-18-8 18Z" fill="#3A7638"/><path d="M429 505h15l-8-16-7 16Z" fill="#4B9948"/><path d="M430 500h12l-6-12-6 12Z" fill="#3A7638"/><path d="M437 510h-2v5h2v-5Z" fill="#603F16"/><path opacity=".2" d="M436 488v22h8l-2-5h2l-3-5h1l-6-12Z" fill="#000"/><path d="M421 512h13l-6-15-7 15Z" fill="#3A7638"/><path d="M422 508h11l-5-13-6 13Z" fill="#4B9948"/><path d="M423 504h9l-4-10-5 10Z" fill="#3A7638"/><path d="M428 511h-1v5h1v-5Z" fill="#603F16"/><path opacity=".2" d="M428 494v18h6l-2-4h1l-1-4-4-10Z" fill="#000"/><path d="M410 514h16l-8-18-8 18Z" fill="#3A7638"/><path d="M411 509h15l-8-16-7 16Z" fill="#4B9948"/><path d="M412 504h12l-6-12-6 12Z" fill="#3A7638"/><path d="M419 514h-2v5h2v-5Z" fill="#603F16"/><path opacity=".2" d="M418 492v22h8l-2-5h2l-3-5h1l-6-12Z" fill="#000"/><path d="M563 504h10l-5-11-5 11Z" fill="#3A7638"/><path d="M563 501h9l-4-10-5 10Z" fill="#4B9948"/><path d="M564 498h7l-3-7-4 7Z" fill="#3A7638"/><path d="M568 504h-1v3h1v-3Z" fill="#603F16"/><path opacity=".2" d="M568 491v13h5l-2-3h1l-1-3-3-7Z" fill="#000"/><path d="M473 511h16l-8-18-8 18Z" fill="#3A7638"/><path d="M474 506h15l-8-16-7 16Z" fill="#4B9948"/><path d="M475 501h12l-6-12-6 12Z" fill="#3A7638"/><path d="M482 511h-2v5h2v-5Z" fill="#603F16"/><path opacity=".2" d="M481 489v22h8l-2-5h2l-3-5h1l-6-12Z" fill="#000"/><path opacity=".2" d="M108 792c63 0 114-12 114-27s-51-27-114-27S-6 750-6 765s51 27 114 27Z" fill="#181A26"/><g opacity=".6" fill="#9D9D9C"><path opacity=".6" d="M214 643c29 0 53-25 53-56 0-30-24-55-53-55-30 0-54 25-54 55 0 31 24 56 54 56Z"/><path opacity=".6" d="M269 648c30 0 54-25 54-56a54 54 0 1 0-108 0c0 31 24 56 54 56Z"/><path opacity=".6" d="M304 616c30 0 54-25 54-56s-24-55-54-55c-29 0-53 24-53 55s24 56 53 56Z"/></g><path d="M162 624c28 0 50-23 50-51s-22-51-50-51c-27 0-49 23-49 51s22 51 49 51Z" fill="#fff"/><path d="M187 632c14 0 25-12 25-26s-11-25-25-25c-13 0-25 11-25 25s12 26 25 26Zm-17-82c14 0 25-11 25-26 0-14-11-25-25-25s-25 11-25 25c0 15 11 26 25 26Z" fill="#fff"/><path d="M224 607c33 0 61-28 61-63s-28-63-61-63c-34 0-62 28-62 63s28 63 62 63Z" fill="#fff"/><path d="M259 612c31 0 56-26 56-58s-25-58-56-58-56 26-56 58 25 58 56 58Z" fill="#fff"/><path d="M284 580c27 0 49-23 49-51s-22-51-49-51c-28 0-50 23-50 51s22 51 50 51Z" fill="#fff"/><path d="m181 694-73-60-69 60v79h142v-79Z" fill="#603F16"/><path d="m181 692-74-69-68 70v21l68-66 74 67v-23Z" fill="#000"/><path d="m189 682-82-72-76 72v27l76-75 82 75v-27Zm-95 40v51h27v-51H94Z" fill="#342312"/><path d="M152 614h-18v43h18v-43Z" fill="#342312"/><g opacity=".3" fill="#000"><path opacity=".2" d="M181 701v13-13Z"/><path opacity=".3" d="M189 682v27l-8-8v71l-74 1V610l27 23v-19h18v35l37 33Z"/></g><path opacity=".2" d="M477 741c-49 3-88 14-88 26 1 12 41 20 90 18s89-14 88-26c0-12-41-20-90-18Z" fill="#181A26"/><path d="M435 733v27s2 7 4 2l8-29h-12Z" fill="#B9B9B9"/><path d="m436 737 5 29s4 7 5 1l2-32-12 2Z" fill="#FBFBFB"/><path d="m529 726-1 26s-2 8-4 2l-7-28h12Z" fill="#B9B9B9"/><path d="m525 735-2 29s-3 8-4 2l-6-31h12Zm-103-84s21-6 25 10c0 0 8 28 0 36 0 0-18 10-30 0 0 0-5-3-5-14 1-11 3-31 10-32Z" fill="#FBFBFB"/><path d="M444 656s12 3 15 0c4-2 0 6 0 6s-8 8-11 5c-4-3-4-11-4-11Z" fill="#181A26"/><path d="M420 657s-11 3-15 0 0 6 0 6 8 8 12 4c3-2 3-10 3-10Z" fill="#FBFBFB"/><path d="M430 650s5 32 20 27c0 0 1-30-20-27Zm7 31a2 2 0 1 0 0-4 2 2 0 0 0 0 4Zm-12 0a2 2 0 1 0 0-3 2 2 0 0 0 0 3Z" fill="#181A26"/><path d="M430 707s-8-39 74-31c0 0 28 6 26 36-2 29-8 27-8 27l-85 2-4-9c-2-7-4-17-3-25Z" fill="#FBFBFB"/><path d="M422 656c-1 1-3 0-4-1l-2-6 2-4c2 0 3 0 4 2l2 6-2 3Zm18 0c-2-1-3-2-2-4l2-6c0-1 2-2 3-1 2 0 3 2 2 3l-2 6c0 2-2 2-3 2Z" fill="#D6AA51"/><path d="M412 689s23-7 38 0c0 0 2 11-15 13 0 0-21 4-23-13Z" fill="#E0715D"/><path d="m436 697-1-1v-5l1-1 1 1v5l-1 1Zm-10 0-1-1v-4l1-1 1 1v4l-1 1Z" fill="#D6AA51"/><path d="M464 677s-3 15 10 12c14-3 14 6 14 6s15 2 10-6l-6-14s-24-3-28 2Zm-33 36s5-12 9-2 16 10 17 10c1-1 15 9 0 9h-25s-3-15-1-17Zm97-16s-27 12-16 15c12 2 8 10 8 10s7 6 10-2c2-10-1-21-2-23Zm-38 25s2-22 8-12c7 11 3 23 9 20 7-4 0 9 0 9l-22 1s-11-15 5-18Zm-31-18s2-8 6-3 7 5 8 5 6 10-2 8c-7-2-12-2-12-1-1 0-11-1 0-9Zm64-16 30-4v2l-29 4-1-2Z" fill="#181A26"/><path d="m551 683 6-7-2 4 2-1-1 4 3 1-3 4 2 3-8-3 1-5Z" fill="#626368"/><path d="M429 654c13 0 24-4 24-9s-11-9-24-9-23 4-23 9 10 9 23 9Z" stroke="#D6AA51" stroke-width="1.5" stroke-miterlimit="10"/><path opacity=".2" d="M430 711a44 44 0 1 0 0-87 44 44 0 0 0 0 87Z" fill="#AAA"/><path d="M530 636h45l-22-51-23 51Z" fill="#3A7638"/><path d="M532 623h41l-20-45-21 45Z" fill="#4B9948"/><path d="M536 609h33l-16-33-17 33Z" fill="#3A7638"/><path d="M555 636h-5v15h5v-15Z" fill="#603F16"/><path opacity=".2" d="M552 576v60h23l-6-13h4l-7-14h3l-17-33Z" fill="#000"/></g><defs><filter id="c" x="18" y="124" width="101.4" height="69.5" filterUnits="userSpaceOnUse" color-interpolation-filters="sRGB"><feFlood flood-opacity="0" result="BackgroundImageFix"/><feBlend in="SourceGraphic" in2="BackgroundImageFix" result="shape"/><feColorMatrix in="SourceAlpha" values="0 0 0 0 0 0 0 0 0 0 0 0 0 0 0 0 0 0 127 0" result="hardAlpha"/><feOffset dy="10.1"/><feGaussianBlur stdDeviation="4.6"/><feComposite in2="hardAlpha" operator="arithmetic" k2="-1" k3="1"/><feColorMatrix values="0 0 0 0 1 0 0 0 0 1 0 0 0 0 1 0 0 0 1 0"/><feBlend in2="shape" result="effect1_innerShadow_720_1129"/></filter><filter id="d" x="381" y="247.4" width="48.4" height="38.4" filterUnits="userSpaceOnUse" color-interpolation-filters="sRGB"><feFlood flood-opacity="0" result="BackgroundImageFix"/><feBlend in="SourceGraphic" in2="BackgroundImageFix" result="shape"/><feColorMatrix in="SourceAlpha" values="0 0 0 0 0 0 0 0 0 0 0 0 0 0 0 0 0 0 127 0" result="hardAlpha"/><feOffset dy="10.1"/><feGaussianBlur stdDeviation="4.6"/><feComposite in2="hardAlpha" operator="arithmetic" k2="-1" k3="1"/><feColorMatrix values="0 0 0 0 1 0 0 0 0 1 0 0 0 0 1 0 0 0 1 0"/><feBlend in2="shape" result="effect1_innerShadow_720_1129"/></filter><radialGradient id="e" cx="0" cy="0" r="1" gradientUnits="userSpaceOnUse" gradientTransform="rotate(90 -6 227) scale(14.5876)"><stop stop-color="#FEF090"/><stop offset="1" stop-color="#F3D502"/></radialGradient><linearGradient id="b" x1="295" y1="646.4" x2="295" y2="262" gradientUnits="userSpaceOnUse"><stop offset=".6" stop-color="#C9BDDE"/><stop offset="1" stop-color="#A18AAB"/></linearGradient><clipPath id="a"><path fill="#fff" d="M0 0h680v803H0z"/></clipPath></defs></svg>