<svg width="295" height="350" fill="none" xmlns="http://www.w3.org/2000/svg"><title>Symput logo</title><path d="M0 0h295v350H0V0Z" fill="#FBBF24"/><path d="M133 226.8c1.8 3.6 4.5 6.9 8.4 9.5 0 0 2.3 2 5.3 2s5.3-2 5.3-2c3.6-2.5 6.3-5.5 8.1-8.8a59 59 0 0 1-27.2-.7Z" fill="#000"/><path d="M128.3 211.5c.1 3.2.5 6.3 1.4 9.4 9.9 3.8 25.2 4 33.8.7 1-3 1.4-6.3 1.5-9.5a61.8 61.8 0 0 1-36.7-.6Z" fill="#fff"/><path d="M148.2 200.1a70 70 0 0 1-19.4-2.7 66 66 0 0 0-1.4 9.3c10.2 4 27.6 5 38.6.6-.2-3.2-.7-6.3-1.3-9.4a58 58 0 0 1-16.5 2.2Z" fill="#000"/><path d="M164.2 193.7c-1-3.3-2-6.5-3.4-9.7a69 69 0 0 1-28.4.5 80.2 80.2 0 0 0-3 8.6 65.2 65.2 0 0 0 34.8.6Z" fill="#fff"/><path d="M163.4 154.8a33 33 0 0 0-2.7-4.8l-.7-.6c.8-2 1.2-4 1.2-6.2 0-6.3-3.6-11.7-8.8-14l4-13.7 11.9-.5c.4 0 .7-.3.7-.7 0-.4-.4-.7-.8-.7l-12.3.4c-.2 0-.5.2-.6.5l-6.8 13.6a14.4 14.4 0 0 0-3.6 0l-6.8-13.6a.8.8 0 0 0-.7-.5l-12.2-.4c-.4 0-.8.3-.8.7 0 .2 0 .4.2.5.1.2.3.2.5.3l11.8.4 4 13.7a15.3 15.3 0 0 0-8.8 14c0 2.2.5 4.3 1.3 6.2l-.7.6s-1.5 2-2.7 5c-23.3 6.6-84.3 14.9-77.4 33.1 7.5 20.3 48.7 14 55.6 8.6 9.6-7.7 17.7-14.8 22.7-20.5l1.3 2.6a79.1 79.1 0 0 0 28.8-.4l1-2.2c5 5.7 12.9 12.6 22.2 20.1 7 5.5 48.1 11.7 55.7-8.6 6.7-18-52.5-26.3-76.5-32.9Z" fill="#000"/></svg>